<mxfile host="app.diagrams.net" modified="2024-04-23T11:28:02.603Z" agent="Mozilla/5.0 (Windows NT 10.0; Win64; x64) AppleWebKit/537.36 (KHTML, like Gecko) Chrome/124.0.0.0 Safari/537.36 Edg/124.0.0.0" version="24.2.8" etag="N1mgI7Wt-X5N7ZTvmb8S" type="github">
  <diagram name="Page-1" id="qD_rkp6jicsI5Pby6M7r">
    <mxGraphModel>
      <root>
        <mxCell id="0" />
        <mxCell id="1" parent="0" />
      </root>
    </mxGraphModel>
  </diagram>
</mxfile>
